<svg xmlns="http://www.w3.org/2000/svg" viewBox="0 0 512 512">
  <path fill="#fff" d="M256 0C114.6 0 0 114.6 0 256s114.6 256 256 256 256-114.6 256-256S397.4 0 256 0zm0 448c-105.9 0-192-86.1-192-192S150.1 64 256 64s192 86.1 192 192-86.1 192-192 192z"/>
  <path fill="#ff0000" d="M256 0v64c105.9 0 192 86.1 192 192s-86.1 192-192 192v64c141.4 0 256-114.6 256-256S397.4 0 256 0z"/>
  <path fill="#000" d="M256 128c-70.7 0-128 57.3-128 128s57.3 128 128 128 128-57.3 128-128-57.3-128-128-128zm0 192c-35.3 0-64-28.7-64-64s28.7-64 64-64 64 28.7 64 64-28.7 64-64 64z"/>
  <circle fill="#fff" cx="256" cy="256" r="32"/>
</svg>
